<mxfile host="65bd71144e">
    <diagram id="T36c5iZK4-yAz2EWMxFc" name="Page-1">
        <mxGraphModel dx="1057" dy="779" grid="0" gridSize="10" guides="1" tooltips="1" connect="1" arrows="1" fold="1" page="1" pageScale="1" pageWidth="850" pageHeight="1100" background="#ffffff" math="0" shadow="0">
            <root>
                <mxCell id="0"/>
                <mxCell id="1" parent="0"/>
                <mxCell id="39" value="East US" style="rounded=0;whiteSpace=wrap;html=1;fillColor=#E6E6E6;strokeColor=#000000;labelPosition=center;verticalLabelPosition=top;align=center;verticalAlign=bottom;fontColor=#000000;" parent="1" vertex="1">
                    <mxGeometry x="195" y="126" width="505" height="589" as="geometry"/>
                </mxCell>
                <mxCell id="88" style="edgeStyle=none;html=1;entryX=0;entryY=0.5;entryDx=0;entryDy=0;strokeColor=#000000;strokeWidth=2;fontColor=#000000;" edge="1" parent="1" source="40" target="72">
                    <mxGeometry relative="1" as="geometry"/>
                </mxCell>
                <mxCell id="89" style="edgeStyle=none;html=1;entryX=0;entryY=0;entryDx=0;entryDy=0;strokeColor=#000000;strokeWidth=2;fontColor=#000000;" edge="1" parent="1" source="40" target="75">
                    <mxGeometry relative="1" as="geometry"/>
                </mxCell>
                <mxCell id="90" style="edgeStyle=none;html=1;entryX=0;entryY=0;entryDx=0;entryDy=0;strokeColor=#000000;strokeWidth=2;fontColor=#000000;" edge="1" parent="1" source="40" target="82">
                    <mxGeometry relative="1" as="geometry"/>
                </mxCell>
                <mxCell id="40" value="OpenAI&lt;br&gt;Endpoint" style="rounded=1;whiteSpace=wrap;html=1;strokeColor=#000000;fontColor=#000000;fillColor=#FF8000;" parent="1" vertex="1">
                    <mxGeometry x="216" y="239" width="120" height="60" as="geometry"/>
                </mxCell>
                <mxCell id="41" style="edgeStyle=none;html=1;strokeColor=#000000;strokeWidth=3;fontColor=#000000;" parent="1" source="42" target="40" edge="1">
                    <mxGeometry relative="1" as="geometry"/>
                </mxCell>
                <mxCell id="42" value="Customer&lt;br&gt;Application" style="shape=process;whiteSpace=wrap;html=1;backgroundOutline=1;strokeColor=#000000;fontColor=#000000;fillColor=#FF8000;" parent="1" vertex="1">
                    <mxGeometry x="34" y="239" width="120" height="60" as="geometry"/>
                </mxCell>
                <mxCell id="59" value="Customer deployment&lt;br style=&quot;font-size: 18px;&quot;&gt;gpt-4o Data Zone Standard version 2024-11-20" style="text;html=1;strokeColor=none;fillColor=none;align=center;verticalAlign=middle;whiteSpace=wrap;rounded=0;fontColor=#000000;fontSize=18;fontStyle=1" parent="1" vertex="1">
                    <mxGeometry x="10" y="50" width="400" height="30" as="geometry"/>
                </mxCell>
                <mxCell id="68" value="Text" style="text;html=1;strokeColor=none;fillColor=none;align=center;verticalAlign=middle;whiteSpace=wrap;rounded=0;" vertex="1" parent="1">
                    <mxGeometry x="407" y="285" width="60" height="30" as="geometry"/>
                </mxCell>
                <mxCell id="72" value="Zone 1" style="rounded=0;whiteSpace=wrap;html=1;dashed=1;strokeColor=#000000;fillColor=#FFFFCC;fontColor=#000000;labelPosition=center;verticalLabelPosition=bottom;align=center;verticalAlign=top;" vertex="1" parent="1">
                    <mxGeometry x="443" y="140" width="246" height="151" as="geometry"/>
                </mxCell>
                <mxCell id="73" value="" style="group" vertex="1" connectable="0" parent="1">
                    <mxGeometry x="464" y="174" width="202" height="79" as="geometry"/>
                </mxCell>
                <mxCell id="64" value="gpt-4o / 2024-11-20" style="shape=parallelogram;perimeter=parallelogramPerimeter;whiteSpace=wrap;html=1;fixedSize=1;fillColor=#CCE5FF;strokeColor=#000000;fontColor=#000000;labelPosition=center;verticalLabelPosition=bottom;align=center;verticalAlign=top;" vertex="1" parent="73">
                    <mxGeometry width="202" height="79" as="geometry"/>
                </mxCell>
                <mxCell id="65" value="" style="aspect=fixed;html=1;points=[];align=center;image;fontSize=12;image=img/lib/azure2/compute/Virtual_Machine.svg;strokeColor=#000000;fontColor=#000000;fillColor=#FF66B3;" vertex="1" parent="73">
                    <mxGeometry x="30" y="24" width="37.73" height="35" as="geometry"/>
                </mxCell>
                <mxCell id="66" value="" style="aspect=fixed;html=1;points=[];align=center;image;fontSize=12;image=img/lib/azure2/compute/Virtual_Machine.svg;strokeColor=#000000;fontColor=#000000;fillColor=#FF66B3;" vertex="1" parent="73">
                    <mxGeometry x="86" y="24" width="37.73" height="35" as="geometry"/>
                </mxCell>
                <mxCell id="67" value="" style="aspect=fixed;html=1;points=[];align=center;image;fontSize=12;image=img/lib/azure2/compute/Virtual_Machine.svg;strokeColor=#000000;fontColor=#000000;fillColor=#FF66B3;" vertex="1" parent="73">
                    <mxGeometry x="141" y="24" width="37.73" height="35" as="geometry"/>
                </mxCell>
                <mxCell id="75" value="Zone 2" style="rounded=0;whiteSpace=wrap;html=1;dashed=1;strokeColor=#000000;fillColor=#FFFFCC;fontColor=#000000;labelPosition=center;verticalLabelPosition=bottom;align=center;verticalAlign=top;" vertex="1" parent="1">
                    <mxGeometry x="443" y="330" width="246" height="151" as="geometry"/>
                </mxCell>
                <mxCell id="76" value="" style="group" vertex="1" connectable="0" parent="1">
                    <mxGeometry x="464" y="364" width="202" height="79" as="geometry"/>
                </mxCell>
                <mxCell id="77" value="gpt-4o / 2024-11-20" style="shape=parallelogram;perimeter=parallelogramPerimeter;whiteSpace=wrap;html=1;fixedSize=1;fillColor=#CCE5FF;strokeColor=#000000;fontColor=#000000;labelPosition=center;verticalLabelPosition=bottom;align=center;verticalAlign=top;" vertex="1" parent="76">
                    <mxGeometry width="202" height="79" as="geometry"/>
                </mxCell>
                <mxCell id="78" value="" style="aspect=fixed;html=1;points=[];align=center;image;fontSize=12;image=img/lib/azure2/compute/Virtual_Machine.svg;strokeColor=#000000;fontColor=#000000;fillColor=#FF66B3;" vertex="1" parent="76">
                    <mxGeometry x="30" y="24" width="37.73" height="35" as="geometry"/>
                </mxCell>
                <mxCell id="79" value="" style="aspect=fixed;html=1;points=[];align=center;image;fontSize=12;image=img/lib/azure2/compute/Virtual_Machine.svg;strokeColor=#000000;fontColor=#000000;fillColor=#FF66B3;" vertex="1" parent="76">
                    <mxGeometry x="86" y="24" width="37.73" height="35" as="geometry"/>
                </mxCell>
                <mxCell id="80" value="" style="aspect=fixed;html=1;points=[];align=center;image;fontSize=12;image=img/lib/azure2/compute/Virtual_Machine.svg;strokeColor=#000000;fontColor=#000000;fillColor=#FF66B3;" vertex="1" parent="76">
                    <mxGeometry x="141" y="24" width="37.73" height="35" as="geometry"/>
                </mxCell>
                <mxCell id="81" value="Text" style="text;html=1;strokeColor=none;fillColor=none;align=center;verticalAlign=middle;whiteSpace=wrap;rounded=0;" vertex="1" parent="1">
                    <mxGeometry x="404" y="659" width="60" height="30" as="geometry"/>
                </mxCell>
                <mxCell id="82" value="Zone 3" style="rounded=0;whiteSpace=wrap;html=1;dashed=1;strokeColor=#000000;fillColor=#FFFFCC;fontColor=#000000;labelPosition=center;verticalLabelPosition=bottom;align=center;verticalAlign=top;" vertex="1" parent="1">
                    <mxGeometry x="440" y="514" width="246" height="151" as="geometry"/>
                </mxCell>
                <mxCell id="83" value="" style="group" vertex="1" connectable="0" parent="1">
                    <mxGeometry x="461" y="548" width="202" height="79" as="geometry"/>
                </mxCell>
                <mxCell id="84" value="gpt-4o / 2024-11-20" style="shape=parallelogram;perimeter=parallelogramPerimeter;whiteSpace=wrap;html=1;fixedSize=1;fillColor=#CCE5FF;strokeColor=#000000;fontColor=#000000;labelPosition=center;verticalLabelPosition=bottom;align=center;verticalAlign=top;" vertex="1" parent="83">
                    <mxGeometry width="202" height="79" as="geometry"/>
                </mxCell>
                <mxCell id="85" value="" style="aspect=fixed;html=1;points=[];align=center;image;fontSize=12;image=img/lib/azure2/compute/Virtual_Machine.svg;strokeColor=#000000;fontColor=#000000;fillColor=#FF66B3;" vertex="1" parent="83">
                    <mxGeometry x="30" y="24" width="37.73" height="35" as="geometry"/>
                </mxCell>
                <mxCell id="86" value="" style="aspect=fixed;html=1;points=[];align=center;image;fontSize=12;image=img/lib/azure2/compute/Virtual_Machine.svg;strokeColor=#000000;fontColor=#000000;fillColor=#FF66B3;" vertex="1" parent="83">
                    <mxGeometry x="86" y="24" width="37.73" height="35" as="geometry"/>
                </mxCell>
                <mxCell id="87" value="" style="aspect=fixed;html=1;points=[];align=center;image;fontSize=12;image=img/lib/azure2/compute/Virtual_Machine.svg;strokeColor=#000000;fontColor=#000000;fillColor=#FF66B3;" vertex="1" parent="83">
                    <mxGeometry x="141" y="24" width="37.73" height="35" as="geometry"/>
                </mxCell>
            </root>
        </mxGraphModel>
    </diagram>
</mxfile>